<svg width="220" height="58" xmlns="http://www.w3.org/2000/svg" xmlns:xlink="http://www.w3.org/1999/xlink"><defs><path id="a" d="M0 .03h20.513V24.7H0z"/><path id="c" d="M.035.03H20.42V24.7H.035z"/></defs><g fill="none" fill-rule="evenodd"><path d="M26.16 6.078l.002.002c3.997 3.525 11.546 5.31 16.835 4.172 2.159-.446 2.087 1.936 2.08 2.281v18.08c.065 4.868-2.036 8.13-4.85 12.387-2.813 4.257-7.79 6.783-11.132 8.194-1.949.822-4.109.919-6.027 0-3.4-1.628-7.994-4.312-10.931-8.194-2.704-3.728-5.12-7.533-5.057-12.402V12.283c.019-.698.224-2.43 2.081-2.03C14.452 11.374 22.003 9.587 26 6.077a.116.116 0 01.161 0zM26.085 15c-5.306 0-7.463 4.704-7.463 9.385 0 .278.013.817.014.849l-1.07 2.737c-.294.783-.584 1.6-.796 2.299-1.012 3.335-.684 4.715-.434 4.746.535.067 2.085-2.51 2.085-2.51 0 1.492.75 3.44 2.373 4.845-.607.192-1.351.487-1.83.849-.43.325-.376.656-.298.79.34.587 5.833.375 7.42.192 1.585.183 7.079.395 7.419-.192.078-.134.131-.465-.299-.79-.478-.362-1.223-.657-1.83-.849 1.623-1.406 2.373-3.353 2.373-4.846 0 0 1.55 2.578 2.085 2.511.25-.03.577-1.411-.434-4.746-.17-.56-.39-1.194-.62-1.826l-.176-.473-1.07-2.737c0-.032.014-.571.014-.85 0-4.68-2.158-9.384-7.463-9.384z" fill="#FFF" fill-rule="nonzero"/><g><path d="M105.163 22.896v-2.43h18.832v2.43h4.084v-4.861h-11.15V16h-4.732v2.035h-11.118v4.86h4.084zm21.129 18.199v-2.807c-3.188-.356-5.875-.82-8.06-1.39 2.776-1.782 4.37-4.339 4.782-7.671h3.52v-2.299h-3.385v-2.833h-3.547v2.833h-10.72v-2.833h-3.545v2.833h-3.359v2.299h3.493c.376 3.314 1.97 5.871 4.782 7.671-2.185.588-4.863 1.051-8.033 1.39v2.807c5.015-.481 9.018-1.248 12.01-2.3 2.99 1.052 7.011 1.819 12.062 2.3zm-12.036-5c-3.402-1.589-5.32-3.922-5.753-7h11.476c-.472 3.117-2.38 5.45-5.723 7zm42.946-9.186v-2.855c-5.229-2.053-9.064-4.738-11.505-8.054h-3.547c-2.441 3.316-6.276 6-11.504 8.054v2.855c5.747-1.62 10.178-4.089 13.292-7.405 3.076 3.316 7.497 5.784 13.264 7.405zm-1.067 13.848v-2.403H145.87v-4.72h7.843v-2.43h-7.843v-3.617h6.026v-2.43H136.01v2.43h5.94v3.617h-7.757v2.43h7.756v4.72h-10.236v2.403h24.423zM173.827 42v-7.574h9.803V20.578h-9.803v-4.465h-3.806v4.465h-9.833v13.848h9.833V42h3.806zm-3.806-10.004h-6.315v-8.987h6.315v8.987zm10.092 0h-6.286v-8.987h6.286v8.987zm26.123-2.883a372.585 372.585 0 00-1.874-12.774h-3.258a194.31 194.31 0 011.528 12.774h3.604zm2.912 12.04v-5.625h-2.97v3.222h-7.871V18.26h-3.777v22.892h14.618zm4.93-3.9c-.768-5.936-1.566-11.126-2.392-15.573h-3.2c.768 4.616 1.46 9.807 2.075 15.572h3.518zm-22.778 0c.558-4.165 1.01-9.317 1.355-15.46h-3.171c-.423 5.841-.99 10.994-1.702 15.46h3.518z" fill="#FFF" fill-rule="nonzero"/><g transform="translate(56.079 16)"><mask id="b" fill="#fff"><use xlink:href="#a"/></mask><path d="M15.56 15.282c0 .497-.07.977-.189 1.438-1.948-1.862-4.141-2.524-5.35-2.757v3.638a7.235 7.235 0 013.382 2.163 5.613 5.613 0 01-3.517 1.24h-.699c-3.128 0-5.674-2.567-5.674-5.722V9.295c0-3.156 2.546-5.723 5.674-5.723h.699c3.129 0 5.674 2.567 5.674 5.723v5.987zm3.513 0V9.295c0-5.117-4.113-9.266-9.187-9.266h-.699C4.113.03 0 4.178 0 9.295v5.987c0 5.116 4.113 9.265 9.187 9.265h.699a9.103 9.103 0 005.84-2.113c1.176 1.05 2.295 1.609 3.147 1.902.633.217 1.19.32 1.64.364v-3.572c-.585-.122-1.516-.47-2.55-1.428a9.284 9.284 0 001.11-4.418z" fill="#FFF" mask="url(#b)"/></g><g transform="translate(77.929 16)"><mask id="d" fill="#fff"><use xlink:href="#c"/></mask><path d="M15.499 15.282c0 .497-.07.977-.187 1.438a10.691 10.691 0 00-5.317-2.757v3.633c.912.27 2.236.867 3.36 2.167a5.557 5.557 0 01-3.495 1.241h-.694c-3.11 0-5.64-2.567-5.64-5.722V9.295c0-3.156 2.53-5.723 5.64-5.723h.694c3.11 0 5.639 2.567 5.639 5.723v5.987zm2.388 4.418a9.331 9.331 0 001.103-4.418V9.295c0-5.117-4.088-9.266-9.13-9.266h-.694C4.123.03.035 4.178.035 9.295v5.987c0 5.116 4.088 9.265 9.13 9.265h.695a9.013 9.013 0 005.804-2.113c1.168 1.05 2.281 1.609 3.128 1.902.628.217 1.182.32 1.629.364v-3.572c-.58-.122-1.506-.47-2.534-1.428z" fill="#FFF" mask="url(#d)"/></g></g></g></svg>